/* XPM */
static char * grass_xpm[] = {
"32 32 203 2",
"  	c #60790C",
". 	c #5E770A",
"+ 	c #5C7409",
"@ 	c #5C7509",
"# 	c #5F7609",
"$ 	c #62780B",
"% 	c #63790C",
"& 	c #64790B",
"* 	c #6B7C27",
"= 	c #8A8A6F",
"- 	c #8A8B6F",
"; 	c #687B1E",
"> 	c #61770A",
", 	c #60770A",
"' 	c #60780B",
") 	c #627A0C",
"! 	c #637B0D",
"~ 	c #62790C",
"{ 	c #5F770A",
"] 	c #5E7609",
"^ 	c #63790B",
"/ 	c #5F760B",
"( 	c #546D0A",
"_ 	c #526D08",
": 	c #546F08",
"< 	c #617A0C",
"[ 	c #647C0D",
"} 	c #647C0E",
"| 	c #60780A",
"1 	c #5F7709",
"2 	c #5F7608",
"3 	c #61780A",
"4 	c #617809",
"5 	c #63790A",
"6 	c #64790D",
"7 	c #677A1F",
"8 	c #677A1C",
"9 	c #617709",
"0 	c #61780B",
"a 	c #61770B",
"b 	c #62790B",
"c 	c #627709",
"d 	c #62770A",
"e 	c #586F09",
"f 	c #456204",
"g 	c #536D07",
"h 	c #62780A",
"i 	c #5F770B",
"j 	c #647A0C",
"k 	c #63780A",
"l 	c #63780B",
"m 	c #62790A",
"n 	c #607608",
"o 	c #61760A",
"p 	c #5C7309",
"q 	c #637A0C",
"r 	c #667A0C",
"s 	c #64790C",
"t 	c #647A0D",
"u 	c #647B0C",
"v 	c #637B0C",
"w 	c #5F760A",
"x 	c #657A0B",
"y 	c #657C0D",
"z 	c #657A0C",
"A 	c #65790C",
"B 	c #60770B",
"C 	c #637A0D",
"D 	c #667E0F",
"E 	c #5F790C",
"F 	c #5B7509",
"G 	c #5B7308",
"H 	c #5C7508",
"I 	c #607709",
"J 	c #647A0B",
"K 	c #587209",
"L 	c #657B0D",
"M 	c #62770B",
"N 	c #5D750A",
"O 	c #607A0D",
"P 	c #647D0E",
"Q 	c #657D0E",
"R 	c #637C0E",
"S 	c #5E780C",
"T 	c #5A7308",
"U 	c #597109",
"V 	c #536D08",
"W 	c #657E0F",
"X 	c #5F780B",
"Y 	c #5B740A",
"Z 	c #5F760C",
"` 	c #60780D",
" .	c #61790C",
"..	c #5E7509",
"+.	c #576F09",
"@.	c #657D0F",
"#.	c #5C7609",
"$.	c #5B7309",
"%.	c #5D7609",
"&.	c #61790A",
"*.	c #5E770B",
"=.	c #5D7509",
"-.	c #64790E",
";.	c #63770E",
">.	c #61770C",
",.	c #62780C",
"'.	c #607809",
").	c #607A0C",
"!.	c #5A7309",
"~.	c #647B0D",
"{.	c #64790F",
"].	c #647911",
"^.	c #63760D",
"/.	c #627A0B",
"(.	c #5E760A",
"_.	c #64780E",
":.	c #647810",
"<.	c #64780F",
"[.	c #63780C",
"}.	c #61790B",
"|.	c #637A0B",
"1.	c #597008",
"2.	c #556E09",
"3.	c #587109",
"4.	c #597209",
"5.	c #677D0E",
"6.	c #63790D",
"7.	c #647910",
"8.	c #657910",
"9.	c #63780D",
"0.	c #566E09",
"a.	c #4B6606",
"b.	c #567009",
"c.	c #5C750C",
"d.	c #5D750B",
"e.	c #667C0D",
"f.	c #63770A",
"g.	c #6C7D2D",
"h.	c #536C06",
"i.	c #627A0D",
"j.	c #627B0D",
"k.	c #5B7408",
"l.	c #627809",
"m.	c #63780F",
"n.	c #6C7C29",
"o.	c #898B6D",
"p.	c #677A1D",
"q.	c #60790B",
"r.	c #6A7C25",
"s.	c #898A6D",
"t.	c #677B1B",
"u.	c #687A1E",
"v.	c #617609",
"w.	c #64780B",
"x.	c #65790D",
"y.	c #667D0E",
"z.	c #5E760B",
"A.	c #5F790B",
"B.	c #61780C",
"C.	c #667E0E",
"D.	c #617B0D",
"E.	c #5D770B",
"F.	c #5A7408",
"G.	c #637C0D",
"H.	c #5D760A",
"I.	c #5E7608",
"J.	c #5C750A",
"K.	c #64790A",
"L.	c #677E0F",
"M.	c #64780C",
"N.	c #637B0E",
"O.	c #627A0A",
"P.	c #5A740A",
"Q.	c #657A0D",
"R.	c #667B0D",
"S.	c #5B7409",
"T.	c #496405",
"U.	c #5F770C",
"V.	c #536C07",
"W.	c #5C760B",
"X.	c #5C740A",
"Y.	c #657B0C",
"Z.	c #4F6908",
"`.	c #597309",
" +	c #667C0E",
".+	c #637D0E",
"++	c #4E6A08",
"@+	c #4A6505",
"#+	c #5C7408",
"$+	c #60780C",
"%+	c #5F780C",
"&+	c #516B07",
"*+	c #607609",
"=+	c #667A0E",
"-+	c #627B0C",
";+	c #647A0A",
">+	c #597308",
",+	c #65790E",
"'+	c #6A7B22",
")+	c #697C25",
"!+	c #647D0D",
"~+	c #577009",
"{+	c #5B730A",
"  . + @ # $ % & * = - ; > , ' ) ! ~ { ] ] , , ^ / ( _ : ) < [ } ",
"| 1 , 2 3 4 % 5 6 7 8 % ^ 9 0 a b b 3 b 3 c 3 3 d e f g { 0 ~ ~ ",
"3 h 9 4 b ! i 9 ^ j k l m c ^ h n 3 $ $ ^ ^ h ^ m o p $ & l % % ",
"^ b l l ' q . , ^ r ^ ^ k ^ b s ^ l > 0 t u u v | w # h j j x 5 ",
"y % h & h m k h & z z & c ^ & k A 9 # B C D D } E F G H I J & h ",
"K L & & 4 c & ^ & & l & j ^ M s s , { N O P Q R S @ T @ , $ w U ",
"V L y v ' { | $ ^ h ' } W X Y # > b $ Z `  .C < i ] ..] I 5 $ +.",
"! @.D } E #.$.%.3 &.{ < < *.=.w > s -.;.>.,.$ | 3 0 > 9 3 '.~ B ",
").P Q R S F !.@ w $ 3 ,.) ~., h $ {.].^.0 l h h 9 h & /.I $ { =.",
"' ~ q ~ ' ] (.B 0 3 B w  .0 ' $ _.:.<.[.j k m k 9 c & k h I , { ",
"}.a 0 ~ h 0 % k |.C 1.2.3.4.5.6.7.8.9.z J & z z & k h k & b h , ",
"h ^ h h $ ^ k b ^ ^ l 0.a.b.D R c.d.^ J h h e.v { 9 ^ k k h |.f.",
"g.-.5 ^ l d & & ^ k ^ B h.Y ! i.N =.b b #   Q j.F k.9 l.c h m.n.",
"o.p.k & & A k m k j & & $ M ,.> 0 ^ h & 3 0 b q.1 I 3 ^ 5 m r.s.",
"t.$ & k m k & k k & x & l b l 5 h 5 ^ k ^ k l j h c k l.& & M u.",
"& ^ J 5 h z & j h k & & k A k & l.h c k z J k & k 5 k k A k v.w.",
"^ z j /.$ b ^ l 9 h ~.v , v.9 h h & & & z & & j & k k & k h h x.",
"L y.Q j.*.z.(., 1 A.Q j.@ + b c k 5 & h k l ^ J & x & k b z B.C ",
"[ C.y.D.E.!.F.] , , 3 | , 2 3 3 u y y < (.B ^ & & z J ^ h a B X ",
"< ~.G.  H.+ @ I.0 ~ k d b > 0 (.) D D O J.!.%.h ^ & & $ ,.,.i X ",
", ~  .' | , , $ b b h l.^ h , .   } }   =.+ ] % ) ^ k ^ q $ $ 0 ",
"> , 3 i | > 4 5 ^ j J K.k k 9 ^ 0 0 B | | 3 h b 3 & & s s $ 9 k ",
"h h , L.0 $ l.s ^ j & k k & 5 & ^ M.b b b 5 ^ & ^ 5 j & ^ ^ ^ b ",
"> w , N.B b 5 u O.) b J & & ^ h $ 1.P.i b & & & J ^ Q.& R.z |.}.",
"S.T.U.V.' ) R D R W.X.$ Y.& ^ ^ 0 z.Z.`.w ^ 5 & ^ ~ q  +y.C..+A.",
"S.g ++@+z..   ~. .%.#+# b J h l ^ , ~ q  .> ^ % ^ ~ $+i.W L.P %+",
"H G &+V., b [.0 3 3 h 4 c ^ & & & ^ % ~  .*+b ,.~ ' i  .! Q j.%+",
"1 , > 3 |.^ & k J k k ^ w.& & k & ^ & Q.z s j =+% 3 > ' 0 t ~ b ",
"&.9 m b |.^ & & & ^ ^ k J l h & z h b & l s Q.Q.$ m d , ^ l b ^ ",
"}.0 | b ^ & z k & & k h ^ h s L y -+' B B.~ % s & h q u k ;+Y.u ",
"D.(.H ] 3 m & k k k h h 3 , q D D P E J.S.i 3 5 $ ,.~.~.X ~.y.y.",
"D.W.>+G w h b ^ ,+'+)+,.{ (.  !+D R E @ F.H.{ 0 ~+{+d.S.j.[ D D "};
