/* XPM */
static char * arrow_xpm[] = {
"64 64 192 2",
"  	c #FFFFFF",
". 	c #FDFDFD",
"+ 	c #FEFEFE",
"@ 	c #E6E6E6",
"# 	c #A0A0A0",
"$ 	c #A9A9A9",
"% 	c #EDEDED",
"& 	c #F8F8F8",
"* 	c #D6D6D6",
"= 	c #6E6E6E",
"- 	c #0D0D0D",
"; 	c #131313",
"> 	c #AFAFAF",
", 	c #FBFBFB",
"' 	c #E7E7E7",
") 	c #A6A6A6",
"! 	c #464646",
"~ 	c #0E0E0E",
"{ 	c #020202",
"] 	c #B7B7B7",
"^ 	c #A5A5A5",
"/ 	c #4C4C4C",
"( 	c #141414",
"_ 	c #040404",
": 	c #333333",
"< 	c #9A9A9A",
"[ 	c #F0F0F0",
"} 	c #F4F4F4",
"| 	c #BFBFBF",
"1 	c #5B5B5B",
"2 	c #0F0F0F",
"3 	c #010101",
"4 	c #000000",
"5 	c #070707",
"6 	c #575757",
"7 	c #C4C4C4",
"8 	c #F7F7F7",
"9 	c #CBCBCB",
"0 	c #6D6D6D",
"a 	c #1E1E1E",
"b 	c #525252",
"c 	c #9E9E9E",
"d 	c #E2E2E2",
"e 	c #FCFCFC",
"f 	c #DEDEDE",
"g 	c #878787",
"h 	c #313131",
"i 	c #101010",
"j 	c #4F4F4F",
"k 	c #AAAAAA",
"l 	c #EEEEEE",
"m 	c #A8A8A8",
"n 	c #424242",
"o 	c #F3F3F3",
"p 	c #C2C2C2",
"q 	c #646464",
"r 	c #171717",
"s 	c #080808",
"t 	c #737373",
"u 	c #C3C3C3",
"v 	c #696969",
"w 	c #1C1C1C",
"x 	c #292929",
"y 	c #626262",
"z 	c #999999",
"A 	c #E8E8E8",
"B 	c #DFDFDF",
"C 	c #9B9B9B",
"D 	c #5C5C5C",
"E 	c #202020",
"F 	c #515151",
"G 	c #C1C1C1",
"H 	c #F5F5F5",
"I 	c #F9F9F9",
"J 	c #C7C7C7",
"K 	c #444444",
"L 	c #060606",
"M 	c #0A0A0A",
"N 	c #2B2B2B",
"O 	c #8B8B8B",
"P 	c #DADADA",
"Q 	c #656565",
"R 	c #262626",
"S 	c #3C3C3C",
"T 	c #979797",
"U 	c #D3D3D3",
"V 	c #DCDCDC",
"W 	c #6B6B6B",
"X 	c #050505",
"Y 	c #404040",
"Z 	c #898989",
"` 	c #CECECE",
" .	c #EAEAEA",
"..	c #EFEFEF",
"+.	c #232323",
"@.	c #3E3E3E",
"#.	c #454545",
"$.	c #434343",
"%.	c #4E4E4E",
"&.	c #505050",
"*.	c #585858",
"=.	c #767676",
"-.	c #ADADAD",
";.	c #BBBBBB",
">.	c #C5C5C5",
",.	c #555555",
"'.	c #090909",
").	c #282828",
"!.	c #323232",
"~.	c #E0E0E0",
"{.	c #0B0B0B",
"].	c #191919",
"^.	c #272727",
"/.	c #343434",
"(.	c #373737",
"_.	c #393939",
":.	c #2C2C2C",
"<.	c #2A2A2A",
"[.	c #383838",
"}.	c #676767",
"|.	c #929292",
"1.	c #B4B4B4",
"2.	c #D9D9D9",
"3.	c #AEAEAE",
"4.	c #181818",
"5.	c #7D7D7D",
"6.	c #B5B5B5",
"7.	c #D1D1D1",
"8.	c #E1E1E1",
"9.	c #E4E4E4",
"0.	c #D4D4D4",
"a.	c #CFCFCF",
"b.	c #CACACA",
"c.	c #B3B3B3",
"d.	c #C9C9C9",
"e.	c #D5D5D5",
"f.	c #ACACAC",
"g.	c #4D4D4D",
"h.	c #474747",
"i.	c #7B7B7B",
"j.	c #757575",
"k.	c #1D1D1D",
"l.	c #121212",
"m.	c #303030",
"n.	c #CCCCCC",
"o.	c #ECECEC",
"p.	c #E5E5E5",
"q.	c #2E2E2E",
"r.	c #1B1B1B",
"s.	c #353535",
"t.	c #8C8C8C",
"u.	c #F1F1F1",
"v.	c #595959",
"w.	c #242424",
"x.	c #414141",
"y.	c #777777",
"z.	c #C0C0C0",
"A.	c #DBDBDB",
"B.	c #2D2D2D",
"C.	c #3A3A3A",
"D.	c #363636",
"E.	c #494949",
"F.	c #A2A2A2",
"G.	c #BDBDBD",
"H.	c #797979",
"I.	c #252525",
"J.	c #858585",
"K.	c #D2D2D2",
"L.	c #F6F6F6",
"M.	c #B8B8B8",
"N.	c #707070",
"O.	c #222222",
"P.	c #818181",
"Q.	c #E3E3E3",
"R.	c #9C9C9C",
"S.	c #484848",
"T.	c #616161",
"U.	c #DDDDDD",
"V.	c #BABABA",
"W.	c #868686",
"X.	c #606060",
"Y.	c #747474",
"Z.	c #0C0C0C",
"`.	c #161616",
" +	c #9F9F9F",
".+	c #7A7A7A",
"++	c #3D3D3D",
"@+	c #6A6A6A",
"#+	c #939393",
"$+	c #B1B1B1",
"%+	c #4B4B4B",
"&+	c #CDCDCD",
"                                                                                                                                ",
"                                                                                                                                ",
"                                                                                                                                ",
"                                                                                                                                ",
"                                                                                                                                ",
"                                                                                                                                ",
"                                                                                                                                ",
"                                                                                                                                ",
"                                                                                                                                ",
"                                                                                                                                ",
"                                                                                                                                ",
"                                                                                                                                ",
"                                                        . .                                                                     ",
"                                                    + @ # $ %                                                                   ",
"                                                  & * = - ; > .                                                                 ",
"                                              , ' ) ! ~ { ; ] +                                                                 ",
"                                          + % ^ / ( { _ : < [                                                                   ",
"                                      + } | 1 2 3 4 5 6 7 8                                                                     ",
"                                    8 9 0 a 3 4 2 b c d e                                                                       ",
"                                , f g h 3 4 i j k % .                                                                           ",
"                            + l m n { 3 2 / k % +                                                                               ",
"                        + o p q r 3 4 s t ' +                                                                                   ",
"                    . o u v w 3 { x y z A                                                                                       ",
"                . B C D E 3 4 5 F G H .                                                                                         ",
"          + + I J K L 4 4 M N O d e                                                                                             ",
"        I P m Q R 3 4 _ S T U 8                                                                                                 ",
"      + V W r 4 4 X Y Z `  .% l l l l l l l l l l l l l l l l l l l l l l l l l l l l l ............% ' [ e + + +               ",
"    I 9 0 +._ { L E @.#.! ! ! ! ! ! ! ! ! ! ! ! ! ! ! ! ! ! ! ! ! ! ! ! ! #.$./ %.%.%.&.*.1 1 1 1 1 *.b =.-.;.;.>.o             ",
"  + B ,.{ 3 4 _ 3 4 4 4 4 4 4 4 4 4 4 4 4 4 4 4 4 4 4 4 4 4 4 4 4 4 4 4 4 4 4 4 4 4 4 4 4 4 4 4 4 4 3 3 '.).h !.Y ` +           ",
"  + ~.v r { 4 4 {.].^./.(.(.(.(.(.(.(.(.(.(.(.(.(.(.(.(.(.(.(.(.(.(.(.(.(._._.:.).).).+.- {.{.{.~ <.[.}.|.1.;.;.>.o             ",
"    I 2.3.=.4.3 3 i h 5.6.7.f 8.d d d d d d d d d d d d d d d d d d d d d 9.@ 0.a.a.a.b.c.> > > c.d.e.} . + + + +               ",
"      + . [ f.g.; {.s ( h.i.1.V 8 . + + + + + + + + + + + + + + + + + + +     + + + + + . . . . . + +                           ",
"            , P j.k.{.k.l.; m.v k n.o.e +                                                                                       ",
"              e p.|.q.; _ r.).s.R F t.9 8.&                                                                                     ",
"                  u.3.v.w.i <.x.R b s.1 y.z.H +                                                                                 ",
"                    & A.T B.X 4.C.R n D.q.E.F.P 8 . + +                                                                         ",
"                      + u.G.H.^.w.I._.s.].~ R K J.> K.~.L.                                                                      ",
"                          + [ M.N.4.k.N Y O.'.{ L ].(.E.P.A.,                                                                   ",
"                              , Q.R.q S.T.g.E k.{.L { 3 _ 6 | H                                                                 ",
"                                  8 U.V.W.X.r.C.Y.Q Y q.Z.`.b e.+                                                               ",
"                                    + & d K. +5..+++@+W.}.}.#+@                                                                 ",
"                                        + + 8 8.* $+H.C.%+S.N.P +                                                               ",
"                                              + + & U.G -.q 1 &++                                                               ",
"                                                    + + L.0.9 o                                                                 ",
"                                                          + +                                                                   ",
"                                                                                                                                ",
"                                                                                                                                ",
"                                                                                                                                ",
"                                                                                                                                ",
"                                                                                                                                ",
"                                                                                                                                ",
"                                                                                                                                ",
"                                                                                                                                ",
"                                                                                                                                ",
"                                                                                                                                ",
"                                                                                                                                ",
"                                                                                                                                ",
"                                                                                                                                ",
"                                                                                                                                ",
"                                                                                                                                ",
"                                                                                                                                ",
"                                                                                                                                ",
"                                                                                                                                ",
"                                                                                                                                "};
